<svg width="48" height="48" viewBox="0 0 48 48" fill="none" xmlns="http://www.w3.org/2000/svg">
<g id="mingcute:quote-right-fill" clip-path="url(#clip0_413_438)">
<g id="Group">
<path id="Vector" d="M33 12C34.8366 11.9997 36.5997 12.7213 37.9092 14.0091C39.2187 15.2968 39.9696 17.0477 40 18.884C40.18 20.614 40.154 23.166 38.984 26.112C37.788 29.124 35.456 32.408 31.2 35.6C30.9899 35.7576 30.7508 35.8722 30.4964 35.9374C30.242 36.0026 29.9772 36.017 29.7172 35.9799C29.1921 35.9049 28.7183 35.6243 28.4 35.2C28.0818 34.7757 27.9451 34.2423 28.0201 33.7172C28.0951 33.1921 28.3757 32.7183 28.8 32.4C31.928 30.054 33.72 27.774 34.746 25.78C33.7841 26.027 32.7806 26.0665 31.8023 25.8959C30.8239 25.7253 29.893 25.3484 29.0715 24.7904C28.25 24.2323 27.5566 23.5059 27.0375 22.6592C26.5183 21.8126 26.1852 20.8652 26.0604 19.8799C25.9356 18.8946 26.0218 17.8941 26.3134 16.9447C26.605 15.9954 27.0953 15.1189 27.7516 14.3736C28.408 13.6283 29.2155 13.0312 30.1204 12.6219C31.0253 12.2127 32.0069 12.0007 33 12ZM15 12C16.8366 11.9997 18.5997 12.7213 19.9092 14.0091C21.2187 15.2968 21.9696 17.0477 22 18.884C22.18 20.614 22.154 23.166 20.984 26.112C19.79 29.124 17.456 32.408 13.2 35.6C12.9899 35.7576 12.7508 35.8722 12.4964 35.9374C12.242 36.0026 11.9772 36.017 11.7172 35.9799C11.1921 35.9049 10.7183 35.6243 10.4 35.2C10.0818 34.7757 9.94511 34.2423 10.0201 33.7172C10.0951 33.1921 10.3757 32.7183 10.8 32.4C13.928 30.054 15.72 27.774 16.746 25.78C15.7841 26.027 14.7806 26.0665 13.8023 25.8959C12.8239 25.7253 11.893 25.3484 11.0715 24.7904C10.25 24.2323 9.55662 23.5059 9.03746 22.6592C8.5183 21.8126 8.18524 20.8652 8.06041 19.8799C7.93557 18.8946 8.02181 17.8941 8.3134 16.9447C8.605 15.9954 9.09527 15.1189 9.75164 14.3736C10.408 13.6283 11.2155 13.0312 12.1204 12.6219C13.0253 12.2127 14.0069 12.0007 15 12Z" fill="currentColor"/>
</g>
</g>
<defs>
<clipPath id="clip0_413_438">
<rect width="48" height="48" fill="white"/>
</clipPath>
</defs>
</svg>
